<?xml version="1.0" encoding="UTF-8"?>
<svg xmlns="http://www.w3.org/2000/svg" xmlns:xlink="http://www.w3.org/1999/xlink" width="5000pt" height="4500pt" viewBox="0 0 5000 4500" version="1.1">

<path style=" stroke:none;fill-rule:nonzero;fill:rgb(0, 0, 0);fill-opacity:1;" d="M 1450 3111 L 1458 3111 L 1462 3108 L 1474 3096 L 1466 3088 L 1462 3083 L 1458 3080 L 1450 3080 L 1457 3088 L 1462 3092 L 1465 3096 L 1457 3103 L 1450 3111 "/>
<path style=" stroke:none;fill-rule:nonzero;fill:rgb(0,0,0);fill-opacity:1;" d="M 1513 3080 L 1498 3095 L 1482 3080 L 1474 3080 L 1489 3096 L 1474 3111 L 1482 3111 L 1498 3096 L 1513 3111 L 1522 3111 L 1507 3096 L 1522 3080 L 1513 3080 "/>
<path style=" stroke:none;fill-rule:nonzero;fill:rgb(0,0,0);fill-opacity:1;" d="M 1539 3088 L 1546 3080 L 1538 3080 L 1534 3083 L 1530 3088 L 1522 3096 L 1530 3103 L 1534 3108 L 1538 3111 L 1546 3111 L 1539 3103 L 1534 3099 L 1531 3096 L 1534 3092 L 1539 3088 "/>
<path style=" stroke:none;fill-rule:nonzero;fill:rgb(0,0,0);fill-opacity:1;" d="M 1298 3126 L 1314 3126 L 1314 3110 L 1298 3110 L 1298 3126 "/>
<path style=" stroke:none;fill-rule:nonzero;fill:rgb(0,0,0);fill-opacity:1;" d="M 1323 3120 L 1333 3120 L 1333 3110 L 1323 3110 L 1323 3120 "/>
<path style=" stroke:none;fill-rule:nonzero;fill:rgb(0,0,0);fill-opacity:1;" d="M 1314 3065 L 1298 3065 L 1298 3081 L 1314 3081 L 1314 3065 "/>
<path style=" stroke:none;fill-rule:nonzero;fill:rgb(0,0,0);fill-opacity:1;" d="M 1272 3123 L 1137 3123 L 1137 3068 L 1272 3068 L 1272 3092 L 1250 3092 L 1250 3084 L 1159 3084 L 1159 3107 L 1250 3107 L 1250 3099 L 1272 3099 Z M 1408 3099 L 1408 3092 L 1278 3092 L 1278 3061 L 1091 3061 L 1091 3130 L 1278 3130 L 1278 3099 L 1408 3099 "/>
<path style=" stroke:none;fill-rule:nonzero;fill:rgb(0,0,0);fill-opacity:1;" d="M 1725 3099 L 1747 3099 L 1747 3107 L 1838 3107 L 1838 3084 L 1747 3084 L 1747 3092 L 1725 3092 L 1725 3068 L 1860 3068 L 1860 3123 L 1725 3123 Z M 1718 3061 L 1718 3092 L 1589 3092 L 1589 3099 L 1718 3099 L 1718 3130 L 1906 3130 L 1906 3061 L 1718 3061 "/>
<path style=" stroke:none;fill-rule:nonzero;fill:rgb(0,0,0);fill-opacity:1;" d="M 1683 3126 L 1699 3126 L 1699 3110 L 1683 3110 L 1683 3126 "/>
<path style=" stroke:none;fill-rule:nonzero;fill:rgb(0,0,0);fill-opacity:1;" d="M 1663 3120 L 1673 3120 L 1673 3110 L 1663 3110 L 1663 3120 "/>
<path style=" stroke:none;fill-rule:nonzero;fill:rgb(0,0,0);fill-opacity:1;" d="M 1699 3065 L 1683 3065 L 1683 3081 L 1699 3081 L 1699 3065 "/>
<path style=" stroke:none;fill-rule:nonzero;fill:rgb(0,0,0);fill-opacity:1;" d="M 1455 3068 L 1541 3068 L 1566 3084 L 1634 3084 L 1634 3078 L 1568 3078 L 1543 3061 L 1453 3061 L 1429 3078 L 1362 3078 L 1362 3084 L 1431 3084 L 1455 3068 "/>
<path style=" stroke:none;fill-rule:nonzero;fill:rgb(0,0,0);fill-opacity:1;" d="M 1541 3123 L 1455 3123 L 1431 3106 L 1362 3106 L 1362 3113 L 1429 3113 L 1453 3130 L 1543 3130 L 1568 3113 L 1634 3113 L 1634 3106 L 1566 3106 L 1541 3123 "/>
</svg>