<svg viewBox="0 0 815 69" xmlns="http://www.w3.org/2000/svg">
<path d="M359,50 L367,50 L371,47 L383,35 L375,27 L371,22 L367,19 L359,19 L366,27 L371,31 L374,35 L366,42 L359,50 z" style="stroke:none;fill-rule:nonzero;fill:rgb(0, 0, 0);fill-opacity:1;"/>
<path d="M421.99997,19 L407,34 L391,19 L383,19 L398,35 L383,50 L391,50 L407,35 L421.99997,50 L431,50 L416,35 L431,19 L421.99997,19 z" style="stroke:none;fill-rule:nonzero;fill:rgb(0, 0, 0);fill-opacity:1;"/>
<path d="M447.99997,27 L455,19 L447,19 L443,22 L439.00003,27 L431,35 L439.00003,42 L443,47 L447,50 L455,50 L447.99997,42 L443,38 L440,35 L443,31 L447.99997,27 z" style="stroke:none;fill-rule:nonzero;fill:rgb(0, 0, 0);fill-opacity:1;"/>
<path d="M207,65 L222.99998,65 L222.99998,49 L207,49 L207,65 z" style="stroke:none;fill-rule:nonzero;fill:rgb(0, 0, 0);fill-opacity:1;"/>
<path d="M232,59 L242,59 L242,49 L232,49 L232,59 z" style="stroke:none;fill-rule:nonzero;fill:rgb(0, 0, 0);fill-opacity:1;"/>
<path d="M222.99998,4 L207,4 L207,20 L222.99998,20 L222.99998,4 z" style="stroke:none;fill-rule:nonzero;fill:rgb(0, 0, 0);fill-opacity:1;"/>
<path d="M181,62 L46,62 L46,7 L181,7 L181,31 L159,31 L159,23 L68,23 L68,46 L159,46 L159,38 L181,38 z M317,38 L317,31 L187,31 L187,0 L0,0 L0,69 L187,69 L187,38 L317,38 z" style="stroke:none;fill-rule:nonzero;fill:rgb(0, 0, 0);fill-opacity:1;"/>
<path d="M634,38 L656,38 L656,46 L747,46 L747,23 L656,23 L656,31 L634,31 L634,7 L769,7 L769,62 L634,62 z M627,0 L627,31 L497.99997,31 L497.99997,38 L627,38 L627,69 L815,69 L815,0 L627,0 z" style="stroke:none;fill-rule:nonzero;fill:rgb(0, 0, 0);fill-opacity:1;"/>
<path d="M592,65 L608,65 L608,49 L592,49 L592,65 z" style="stroke:none;fill-rule:nonzero;fill:rgb(0, 0, 0);fill-opacity:1;"/>
<path d="M572,59 L582,59 L582,49 L572,49 L572,59 z" style="stroke:none;fill-rule:nonzero;fill:rgb(0, 0, 0);fill-opacity:1;"/>
<path d="M608,4 L592,4 L592,20 L608,20 L608,4 z" style="stroke:none;fill-rule:nonzero;fill:rgb(0, 0, 0);fill-opacity:1;"/>
<path d="M364,7 L449.99997,7 L475,23 L543,23 L543,17 L477,17 L452.00003,0 L362,0 L338,17 L271,17 L271,23 L340,23 L364,7 z" style="stroke:none;fill-rule:nonzero;fill:rgb(0, 0, 0);fill-opacity:1;"/>
<path d="M449.99997,62 L364,62 L340,45 L271,45 L271,52 L338,52 L362,69 L452.00003,69 L477,52 L543,52 L543,45 L475,45 L449.99997,62 z" style="stroke:none;fill-rule:nonzero;fill:rgb(0, 0, 0);fill-opacity:1;"/>
</svg>